<?xml version="1.0" standalone="no"?>
<!DOCTYPE svg PUBLIC "-//W3C//DTD SVG 20010904//EN"
 "http://www.w3.org/TR/2001/REC-SVG-20010904/DTD/svg10.dtd">
<svg version="1.0" xmlns="http://www.w3.org/2000/svg"
 width="264.000000pt" height="264.000000pt" viewBox="0 0 264.000000 264.000000"
 preserveAspectRatio="xMidYMid meet">
<metadata>
Created by potrace 1.11, written by Peter Selinger 2001-2013
</metadata>
<g transform="translate(0.000000,264.000000) scale(0.100000,-0.100000)"
fill="#000000" stroke="none">
<path d="M1178 2615 c-2 -2 -25 -6 -53 -10 -177 -23 -380 -100 -531 -201 -316
-211 -511 -515 -580 -899 -15 -86 -11 -308 7 -410 23 -131 24 -133 55 -223
147 -418 531 -755 959 -842 28 -5 64 -12 80 -16 64 -13 321 -12 400 1 113 20
121 22 209 51 337 111 604 340 764 653 48 97 104 253 116 326 3 17 10 59 16
95 15 97 5 338 -18 445 -110 495 -499 889 -984 999 -16 4 -31 7 -35 8 -69 16
-171 26 -274 26 -70 0 -129 -1 -131 -3z"/>
</g>
</svg>
